{
    "asset" : {
        "generator" : "Khronos glTF Blender I/O v1.7.33",
        "version" : "2.0"
    },
    "scene" : 0,
    "scenes" : [
        {
            "name" : "Scene",
            "nodes" : [
                0
            ]
        }
    ],
    "nodes" : [
        {
            "mesh" : 0,
            "name" : "WHog_Fender_Left"
        }
    ],
    "materials" : [
        {
            "name" : "WorldGridMaterial",
            "normalTexture" : {
                "index" : 0
            },
            "pbrMetallicRoughness" : {
                "baseColorTexture" : {
                    "index" : 1
                },
                "metallicRoughnessTexture" : {
                    "index" : 2
                }
            }
        }
    ],
    "meshes" : [
        {
            "name" : "WHog_Fender_Left",
            "primitives" : [
                {
                    "attributes" : {
                        "POSITION" : 0,
                        "NORMAL" : 1,
                        "TEXCOORD_0" : 2,
                        "TEXCOORD_1" : 3
                    },
                    "indices" : 4,
                    "material" : 0
                }
            ]
        }
    ],
    "textures" : [
        {
            "sampler" : 0,
            "source" : 0
        },
        {
            "sampler" : 0,
            "source" : 1
        },
        {
            "sampler" : 0,
            "source" : 2
        }
    ],
    "images" : [
        {
            "bufferView" : 5,
            "mimeType" : "image/png",
            "name" : "WorldGridMaterial_Normal"
        },
        {
            "bufferView" : 6,
            "mimeType" : "image/png",
            "name" : "WorldGridMaterial_BaseColor"
        },
        {
            "bufferView" : 7,
            "mimeType" : "image/png",
            "name" : "WorldGridMaterial_MetallicRoughness"
        }
    ],
    "accessors" : [
        {
            "bufferView" : 0,
            "componentType" : 5126,
            "count" : 1761,
            "max" : [
                0.6587867736816406,
                0.27857762575149536,
                0.2207726091146469
            ],
            "min" : [
                -0.6798568367958069,
                -0.35294127464294434,
                -0.09698173403739929
            ],
            "type" : "VEC3"
        },
        {
            "bufferView" : 1,
            "componentType" : 5126,
            "count" : 1761,
            "type" : "VEC3"
        },
        {
            "bufferView" : 2,
            "componentType" : 5126,
            "count" : 1761,
            "type" : "VEC2"
        },
        {
            "bufferView" : 3,
            "componentType" : 5126,
            "count" : 1761,
            "type" : "VEC2"
        },
        {
            "bufferView" : 4,
            "componentType" : 5123,
            "count" : 2127,
            "type" : "SCALAR"
        }
    ],
    "bufferViews" : [
        {
            "buffer" : 0,
            "byteLength" : 21132,
            "byteOffset" : 0
        },
        {
            "buffer" : 0,
            "byteLength" : 21132,
            "byteOffset" : 21132
        },
        {
            "buffer" : 0,
            "byteLength" : 14088,
            "byteOffset" : 42264
        },
        {
            "buffer" : 0,
            "byteLength" : 14088,
            "byteOffset" : 56352
        },
        {
            "buffer" : 0,
            "byteLength" : 4254,
            "byteOffset" : 70440
        },
        {
            "buffer" : 0,
            "byteLength" : 33557,
            "byteOffset" : 74696
        },
        {
            "buffer" : 0,
            "byteLength" : 351317,
            "byteOffset" : 108256
        },
        {
            "buffer" : 0,
            "byteLength" : 24109,
            "byteOffset" : 459576
        }
    ],
    "samplers" : [
        {
            "magFilter" : 9729,
            "minFilter" : 9987
        }
    ],
    "buffers" : [
        {
            "byteLength" : 483688,
            "uri" : "data:application/octet-stream;base64,"
        }
    ]
}
