{
	"asset":
	{
		"version": "2.0",
		"generator": "Unreal Engine 5.1.0 glTF Exporter 1.3.1"
	},
	"scene": 0,
	"accessors": [
		{
			"bufferView": 0,
			"count": 2130,
			"type": "SCALAR",
			"componentType": 5123
		},
		{
			"bufferView": 1,
			"count": 1227,
			"type": "VEC3",
			"componentType": 5126,
			"min": [ 0.00669289147, 0.00119427557, -0.678944051 ],
			"max": [ 1.34533656, 0.632713139, -0.361189604 ]
		},
		{
			"bufferView": 2,
			"count": 1227,
			"type": "VEC3",
			"componentType": 5126
		},
		{
			"bufferView": 3,
			"count": 1227,
			"type": "VEC4",
			"componentType": 5126
		},
		{
			"bufferView": 4,
			"count": 1227,
			"type": "VEC2",
			"componentType": 5126
		},
		{
			"bufferView": 5,
			"count": 1227,
			"type": "VEC2",
			"componentType": 5126
		}
	],
	"buffers": [
		{
			"uri": "WHog_Fender_Right_corr.bin",
			"byteLength": 72972
		}
	],
	"bufferViews": [
		{
			"buffer": 0,
			"byteLength": 4260,
			"target": 34963
		},
		{
			"buffer": 0,
			"byteLength": 14724,
			"byteOffset": 4260,
			"target": 34962
		},
		{
			"buffer": 0,
			"byteLength": 14724,
			"byteOffset": 18984,
			"target": 34962
		},
		{
			"buffer": 0,
			"byteLength": 19632,
			"byteOffset": 33708,
			"target": 34962
		},
		{
			"buffer": 0,
			"byteLength": 9816,
			"byteOffset": 53340,
			"target": 34962
		},
		{
			"buffer": 0,
			"byteLength": 9816,
			"byteOffset": 63156,
			"target": 34962
		}
	],
	"images": [
		{
			"uri": "WorldGridMaterial_BaseColor.png"
		},
		{
			"uri": "WorldGridMaterial_MetallicRoughness.png"
		},
		{
			"uri": "WorldGridMaterial_Normal.png"
		}
	],
	"materials": [
		{
			"name": "WorldGridMaterial",
			"pbrMetallicRoughness":
			{
				"baseColorTexture":
				{
					"index": 0
				},
				"metallicRoughnessTexture":
				{
					"index": 1
				}
			},
			"normalTexture":
			{
				"index": 2
			}
		}
	],
	"meshes": [
		{
			"name": "WHog_Fender_Right",
			"primitives": [
				{
					"attributes":
					{
						"POSITION": 1,
						"NORMAL": 2,
						"TANGENT": 3,
						"TEXCOORD_0": 4,
						"TEXCOORD_1": 5
					},
					"indices": 0,
					"material": 0
				}
			]
		}
	],
	"nodes": [
		{
			"mesh": 0
		}
	],
	"samplers": [
		{
			"name": "WorldGridMaterial_BaseColor",
			"minFilter": 9987,
			"magFilter": 9729
		},
		{
			"name": "WorldGridMaterial_MetallicRoughness",
			"minFilter": 9987,
			"magFilter": 9729
		},
		{
			"name": "WorldGridMaterial_Normal",
			"minFilter": 9987,
			"magFilter": 9729
		}
	],
	"scenes": [
		{
			"nodes": [ 0 ]
		}
	],
	"textures": [
		{
			"name": "WorldGridMaterial_BaseColor",
			"sampler": 0,
			"source": 0
		},
		{
			"name": "WorldGridMaterial_MetallicRoughness",
			"sampler": 1,
			"source": 1
		},
		{
			"name": "WorldGridMaterial_Normal",
			"sampler": 2,
			"source": 2
		}
	]
}