{
	"asset":
	{
		"version": "2.0",
		"generator": "Unreal Engine 5.1.0 glTF Exporter 1.3.1"
	},
	"scene": 0,
	"accessors": [
		{
			"bufferView": 0,
			"count": 4857,
			"type": "SCALAR",
			"componentType": 5123
		},
		{
			"bufferView": 1,
			"count": 3594,
			"type": "VEC3",
			"componentType": 5126,
			"min": [ 0.00713864528, 0.000301314576, -0.710814893 ],
			"max": [ 1.36873531, 0.348247468, -0.00353638548 ]
		},
		{
			"bufferView": 2,
			"count": 3594,
			"type": "VEC3",
			"componentType": 5126
		},
		{
			"bufferView": 3,
			"count": 3594,
			"type": "VEC4",
			"componentType": 5126
		},
		{
			"bufferView": 4,
			"count": 3594,
			"type": "VEC2",
			"componentType": 5126
		},
		{
			"bufferView": 5,
			"count": 3594,
			"type": "VEC2",
			"componentType": 5126
		}
	],
	"buffers": [
		{
			"uri": "Whog_chasis_corr.bin",
			"byteLength": 210980
		}
	],
	"bufferViews": [
		{
			"buffer": 0,
			"byteLength": 9714,
			"target": 34963
		},
		{
			"buffer": 0,
			"byteLength": 43128,
			"byteOffset": 9716,
			"target": 34962
		},
		{
			"buffer": 0,
			"byteLength": 43128,
			"byteOffset": 52844,
			"target": 34962
		},
		{
			"buffer": 0,
			"byteLength": 57504,
			"byteOffset": 95972,
			"target": 34962
		},
		{
			"buffer": 0,
			"byteLength": 28752,
			"byteOffset": 153476,
			"target": 34962
		},
		{
			"buffer": 0,
			"byteLength": 28752,
			"byteOffset": 182228,
			"target": 34962
		}
	],
	"images": [
		{
			"uri": "WorldGridMaterial_BaseColor.png"
		},
		{
			"uri": "WorldGridMaterial_MetallicRoughness.png"
		},
		{
			"uri": "WorldGridMaterial_Normal.png"
		}
	],
	"materials": [
		{
			"name": "WorldGridMaterial",
			"pbrMetallicRoughness":
			{
				"baseColorTexture":
				{
					"index": 0
				},
				"metallicRoughnessTexture":
				{
					"index": 1
				}
			},
			"normalTexture":
			{
				"index": 2
			}
		}
	],
	"meshes": [
		{
			"name": "WHog_Chassis",
			"primitives": [
				{
					"attributes":
					{
						"POSITION": 1,
						"NORMAL": 2,
						"TANGENT": 3,
						"TEXCOORD_0": 4,
						"TEXCOORD_1": 5
					},
					"indices": 0,
					"material": 0
				}
			]
		}
	],
	"nodes": [
		{
			"mesh": 0
		}
	],
	"samplers": [
		{
			"name": "WorldGridMaterial_BaseColor",
			"minFilter": 9987,
			"magFilter": 9729
		},
		{
			"name": "WorldGridMaterial_MetallicRoughness",
			"minFilter": 9987,
			"magFilter": 9729
		},
		{
			"name": "WorldGridMaterial_Normal",
			"minFilter": 9987,
			"magFilter": 9729
		}
	],
	"scenes": [
		{
			"nodes": [ 0 ]
		}
	],
	"textures": [
		{
			"name": "WorldGridMaterial_BaseColor",
			"sampler": 0,
			"source": 0
		},
		{
			"name": "WorldGridMaterial_MetallicRoughness",
			"sampler": 1,
			"source": 1
		},
		{
			"name": "WorldGridMaterial_Normal",
			"sampler": 2,
			"source": 2
		}
	]
}